<?xml version="1.0" encoding="UTF-8" standalone="no"?>
<!DOCTYPE svg PUBLIC "-//W3C//DTD SVG 1.1//EN"
 "http://www.w3.org/Graphics/SVG/1.1/DTD/svg11.dtd">
<!-- Generated by graphviz version 2.40.1 (20161225.0304)
 -->
<!-- Title: tale Pages: 1 -->
<svg width="1294pt" height="476pt"
 viewBox="0.00 0.00 1294.45 476.00" xmlns="http://www.w3.org/2000/svg" xmlns:xlink="http://www.w3.org/1999/xlink">
<g id="graph0" class="graph" transform="scale(1 1) rotate(0) translate(4 472)">
<title>tale</title>
<polygon fill="#ffffff" stroke="transparent" points="-4,4 -4,-472 1290.4508,-472 1290.4508,4 -4,4"/>
<!-- tech_ID0EK -->
<g id="node1" class="node">
<title>tech_ID0EK</title>
<ellipse fill="#d2b48c" stroke="#d2b48c" cx="854.7337" cy="-450" rx="60.2361" ry="18"/>
<text text-anchor="middle" x="854.7337" y="-445.8" font-family="Times,serif" font-size="14.00" fill="#000000">Stonework 1</text>
</g>
<!-- tech_ID0EBC -->
<g id="node11" class="node">
<title>tech_ID0EBC</title>
<ellipse fill="#daa520" stroke="#daa520" cx="512.7337" cy="-378" rx="54.4534" ry="18"/>
<text text-anchor="middle" x="512.7337" y="-373.8" font-family="Times,serif" font-size="14.00" fill="#000000">Pyrolysis 1</text>
</g>
<!-- tech_ID0EK&#45;&gt;tech_ID0EBC -->
<g id="edge8" class="edge">
<title>tech_ID0EK&#45;&gt;tech_ID0EBC</title>
<path fill="none" stroke="#000000" d="M801.9905,-441.2038C745.6698,-431.4823 653.9465,-414.7047 575.7337,-396 571.6265,-395.0178 567.3856,-393.9418 563.1361,-392.8201"/>
<polygon fill="#000000" stroke="#000000" points="563.8318,-389.3824 553.2642,-390.142 561.999,-396.1382 563.8318,-389.3824"/>
</g>
<!-- tech_ID0EID -->
<g id="node16" class="node">
<title>tech_ID0EID</title>
<ellipse fill="#fa8072" stroke="#fa8072" cx="854.7337" cy="-378" rx="68.315" ry="18"/>
<text text-anchor="middle" x="854.7337" y="-373.8" font-family="Times,serif" font-size="14.00" fill="#000000">Chariot Repair</text>
</g>
<!-- tech_ID0EK&#45;&gt;tech_ID0EID -->
<g id="edge13" class="edge">
<title>tech_ID0EK&#45;&gt;tech_ID0EID</title>
<path fill="none" stroke="#000000" d="M854.7337,-431.8314C854.7337,-424.131 854.7337,-414.9743 854.7337,-406.4166"/>
<polygon fill="#000000" stroke="#000000" points="858.2338,-406.4132 854.7337,-396.4133 851.2338,-406.4133 858.2338,-406.4132"/>
</g>
<!-- tech_ID0ERE -->
<g id="node22" class="node">
<title>tech_ID0ERE</title>
<ellipse fill="#fa8072" stroke="#fa8072" cx="987.7337" cy="-378" rx="46.933" ry="18"/>
<text text-anchor="middle" x="987.7337" y="-373.8" font-family="Times,serif" font-size="14.00" fill="#000000">Mining 1</text>
</g>
<!-- tech_ID0EK&#45;&gt;tech_ID0ERE -->
<g id="edge20" class="edge">
<title>tech_ID0EK&#45;&gt;tech_ID0ERE</title>
<path fill="none" stroke="#000000" d="M883.9211,-434.1993C903.7707,-423.4537 930.1779,-409.158 951.391,-397.6742"/>
<polygon fill="#000000" stroke="#000000" points="953.3013,-400.6201 960.4291,-392.7814 949.9687,-394.4643 953.3013,-400.6201"/>
</g>
<!-- tech_ID0EN -->
<g id="node2" class="node">
<title>tech_ID0EN</title>
<ellipse fill="#d2b48c" stroke="#d2b48c" cx="76.7337" cy="-90" rx="76.968" ry="18"/>
<text text-anchor="middle" x="76.7337" y="-85.8" font-family="Times,serif" font-size="14.00" fill="#000000">Wood Treatment</text>
</g>
<!-- tech_ID0EHH -->
<g id="node30" class="node">
<title>tech_ID0EHH</title>
<ellipse fill="#7fffd4" stroke="#7fffd4" cx="76.7337" cy="-18" rx="59.0727" ry="18"/>
<text text-anchor="middle" x="76.7337" y="-13.8" font-family="Times,serif" font-size="14.00" fill="#000000">Gardening 2</text>
</g>
<!-- tech_ID0EN&#45;&gt;tech_ID0EHH -->
<g id="edge32" class="edge">
<title>tech_ID0EN&#45;&gt;tech_ID0EHH</title>
<path fill="none" stroke="#000000" d="M76.7337,-71.8314C76.7337,-64.131 76.7337,-54.9743 76.7337,-46.4166"/>
<polygon fill="#000000" stroke="#000000" points="80.2338,-46.4132 76.7337,-36.4133 73.2338,-46.4133 80.2338,-46.4132"/>
</g>
<!-- tech_ID0EHB -->
<g id="node3" class="node">
<title>tech_ID0EHB</title>
<ellipse fill="#da70d6" stroke="#da70d6" cx="167.7337" cy="-162" rx="71.2696" ry="18"/>
<text text-anchor="middle" x="167.7337" y="-157.8" font-family="Times,serif" font-size="14.00" fill="#000000">Glassblowing 2</text>
</g>
<!-- tech_ID0EHB&#45;&gt;tech_ID0EN -->
<g id="edge1" class="edge">
<title>tech_ID0EHB&#45;&gt;tech_ID0EN</title>
<path fill="none" stroke="#000000" d="M145.7051,-144.5708C133.9685,-135.2847 119.3627,-123.7285 106.6174,-113.6442"/>
<polygon fill="#000000" stroke="#000000" points="108.5733,-110.7288 98.5594,-107.2687 104.2299,-116.2183 108.5733,-110.7288"/>
</g>
<!-- tech_ID0EVB -->
<g id="node10" class="node">
<title>tech_ID0EVB</title>
<ellipse fill="#da70d6" stroke="#da70d6" cx="232.7337" cy="-90" rx="61.9524" ry="18"/>
<text text-anchor="middle" x="232.7337" y="-85.8" font-family="Times,serif" font-size="14.00" fill="#000000">Raeli Pottery</text>
</g>
<!-- tech_ID0EHB&#45;&gt;tech_ID0EVB -->
<g id="edge6" class="edge">
<title>tech_ID0EHB&#45;&gt;tech_ID0EVB</title>
<path fill="none" stroke="#000000" d="M183.8011,-144.2022C191.6724,-135.4832 201.2889,-124.8311 209.907,-115.2849"/>
<polygon fill="#000000" stroke="#000000" points="212.748,-117.3611 216.8511,-107.593 207.5521,-112.6704 212.748,-117.3611"/>
</g>
<!-- tech_ID0EZ -->
<g id="node4" class="node">
<title>tech_ID0EZ</title>
<ellipse fill="#da70d6" stroke="#da70d6" cx="561.7337" cy="-234" rx="74.7184" ry="18"/>
<text text-anchor="middle" x="561.7337" y="-229.8" font-family="Times,serif" font-size="14.00" fill="#000000">Blacksmithing 1</text>
</g>
<!-- tech_ID0EOF -->
<g id="node23" class="node">
<title>tech_ID0EOF</title>
<ellipse fill="#87ceeb" stroke="#87ceeb" cx="577.7337" cy="-162" rx="58.5259" ry="18"/>
<text text-anchor="middle" x="577.7337" y="-157.8" font-family="Times,serif" font-size="14.00" fill="#000000">Chemistry 1</text>
</g>
<!-- tech_ID0EZ&#45;&gt;tech_ID0EOF -->
<g id="edge24" class="edge">
<title>tech_ID0EZ&#45;&gt;tech_ID0EOF</title>
<path fill="none" stroke="#000000" d="M565.7711,-215.8314C567.4823,-208.131 569.5171,-198.9743 571.4189,-190.4166"/>
<polygon fill="#000000" stroke="#000000" points="574.8891,-190.9344 573.6418,-180.4133 568.0558,-189.4159 574.8891,-190.9344"/>
</g>
<!-- tech_ID0ERH -->
<g id="node27" class="node">
<title>tech_ID0ERH</title>
<ellipse fill="#7fffd4" stroke="#7fffd4" cx="448.7337" cy="-162" rx="52.743" ry="18"/>
<text text-anchor="middle" x="448.7337" y="-157.8" font-family="Times,serif" font-size="14.00" fill="#000000">Viticulture</text>
</g>
<!-- tech_ID0EZ&#45;&gt;tech_ID0ERH -->
<g id="edge33" class="edge">
<title>tech_ID0EZ&#45;&gt;tech_ID0ERH</title>
<path fill="none" stroke="#000000" d="M535.2402,-217.1192C519.4639,-207.0671 499.2906,-194.2133 482.394,-183.4473"/>
<polygon fill="#000000" stroke="#000000" points="484.2119,-180.4555 473.8976,-178.0336 480.4503,-186.359 484.2119,-180.4555"/>
</g>
<!-- tech_ID0EYE -->
<g id="node5" class="node">
<title>tech_ID0EYE</title>
<ellipse fill="#fa8072" stroke="#fa8072" cx="920.7337" cy="-306" rx="46.933" ry="18"/>
<text text-anchor="middle" x="920.7337" y="-301.8" font-family="Times,serif" font-size="14.00" fill="#000000">Mining 2</text>
</g>
<!-- tech_ID0EYE&#45;&gt;tech_ID0EZ -->
<g id="edge2" class="edge">
<title>tech_ID0EYE&#45;&gt;tech_ID0EZ</title>
<path fill="none" stroke="#000000" d="M878.597,-298.032C824.4204,-287.7239 727.4602,-269.0613 644.7337,-252 638.998,-250.8171 633.0441,-249.5679 627.0778,-248.3016"/>
<polygon fill="#000000" stroke="#000000" points="627.5721,-244.8283 617.0617,-246.1628 626.1103,-251.674 627.5721,-244.8283"/>
</g>
<!-- tech_ID0EXC -->
<g id="node13" class="node">
<title>tech_ID0EXC</title>
<ellipse fill="#fa8072" stroke="#fa8072" cx="701.7337" cy="-234" rx="47.573" ry="18"/>
<text text-anchor="middle" x="701.7337" y="-229.8" font-family="Times,serif" font-size="14.00" fill="#000000">Casting 1</text>
</g>
<!-- tech_ID0EYE&#45;&gt;tech_ID0EXC -->
<g id="edge11" class="edge">
<title>tech_ID0EYE&#45;&gt;tech_ID0EXC</title>
<path fill="none" stroke="#000000" d="M885.0601,-294.2717C847.5497,-281.9395 788.4044,-262.4945 747.4841,-249.0412"/>
<polygon fill="#000000" stroke="#000000" points="748.3491,-245.6414 737.7562,-245.843 746.1628,-252.2912 748.3491,-245.6414"/>
</g>
<!-- tech_ID0EWD -->
<g id="node18" class="node">
<title>tech_ID0EWD</title>
<ellipse fill="#fa8072" stroke="#fa8072" cx="988.7337" cy="-234" rx="61.3764" ry="18"/>
<text text-anchor="middle" x="988.7337" y="-229.8" font-family="Times,serif" font-size="14.00" fill="#000000">Metallurgy 1</text>
</g>
<!-- tech_ID0EYE&#45;&gt;tech_ID0EWD -->
<g id="edge15" class="edge">
<title>tech_ID0EYE&#45;&gt;tech_ID0EWD</title>
<path fill="none" stroke="#000000" d="M936.8487,-288.937C945.3615,-279.9235 955.9653,-268.6959 965.3641,-258.7443"/>
<polygon fill="#000000" stroke="#000000" points="967.9402,-261.114 972.2619,-251.4407 962.8511,-256.3076 967.9402,-261.114"/>
</g>
<!-- tech_ID0E4D -->
<g id="node19" class="node">
<title>tech_ID0E4D</title>
<ellipse fill="#fa8072" stroke="#fa8072" cx="828.7337" cy="-162" rx="61.3764" ry="18"/>
<text text-anchor="middle" x="828.7337" y="-157.8" font-family="Times,serif" font-size="14.00" fill="#000000">Metallurgy 2</text>
</g>
<!-- tech_ID0EYE&#45;&gt;tech_ID0E4D -->
<g id="edge17" class="edge">
<title>tech_ID0EYE&#45;&gt;tech_ID0E4D</title>
<path fill="none" stroke="#000000" d="M909.4527,-288.3428C893.4508,-263.2963 864.0477,-217.2741 845.4909,-188.2287"/>
<polygon fill="#000000" stroke="#000000" points="848.4403,-186.3443 840.1069,-179.8017 842.5414,-190.113 848.4403,-186.3443"/>
</g>
<!-- tech_ID0E6E -->
<g id="node21" class="node">
<title>tech_ID0E6E</title>
<ellipse fill="#fa8072" stroke="#fa8072" cx="1182.7337" cy="-162" rx="46.933" ry="18"/>
<text text-anchor="middle" x="1182.7337" y="-157.8" font-family="Times,serif" font-size="14.00" fill="#000000">Mining 3</text>
</g>
<!-- tech_ID0EYE&#45;&gt;tech_ID0E6E -->
<g id="edge23" class="edge">
<title>tech_ID0EYE&#45;&gt;tech_ID0E6E</title>
<path fill="none" stroke="#000000" d="M957.0207,-294.6399C985.5266,-285.0512 1025.7775,-270.0217 1058.7337,-252 1094.0164,-232.7061 1130.8701,-204.8141 1155.1354,-185.2072"/>
<polygon fill="#000000" stroke="#000000" points="1157.6389,-187.6816 1163.1701,-178.6452 1153.211,-182.2599 1157.6389,-187.6816"/>
</g>
<!-- tech_ID0EAB -->
<g id="node6" class="node">
<title>tech_ID0EAB</title>
<ellipse fill="#da70d6" stroke="#da70d6" cx="167.7337" cy="-234" rx="71.2696" ry="18"/>
<text text-anchor="middle" x="167.7337" y="-229.8" font-family="Times,serif" font-size="14.00" fill="#000000">Glassblowing 1</text>
</g>
<!-- tech_ID0EAB&#45;&gt;tech_ID0EHB -->
<g id="edge4" class="edge">
<title>tech_ID0EAB&#45;&gt;tech_ID0EHB</title>
<path fill="none" stroke="#000000" d="M167.7337,-215.8314C167.7337,-208.131 167.7337,-198.9743 167.7337,-190.4166"/>
<polygon fill="#000000" stroke="#000000" points="171.2338,-190.4132 167.7337,-180.4133 164.2338,-190.4133 171.2338,-190.4132"/>
</g>
<!-- tech_ID0ELC -->
<g id="node7" class="node">
<title>tech_ID0ELC</title>
<ellipse fill="#daa520" stroke="#daa520" cx="512.7337" cy="-306" rx="54.4534" ry="18"/>
<text text-anchor="middle" x="512.7337" y="-301.8" font-family="Times,serif" font-size="14.00" fill="#000000">Pyrolysis 2</text>
</g>
<!-- tech_ID0ELC&#45;&gt;tech_ID0EAB -->
<g id="edge3" class="edge">
<title>tech_ID0ELC&#45;&gt;tech_ID0EAB</title>
<path fill="none" stroke="#000000" d="M465.9491,-296.6789C413.1397,-286.0996 324.6827,-268.2051 248.7337,-252 243.0477,-250.7868 237.1413,-249.5087 231.2253,-248.2164"/>
<polygon fill="#000000" stroke="#000000" points="231.8152,-244.7627 221.2973,-246.037 230.3143,-251.5999 231.8152,-244.7627"/>
</g>
<!-- tech_ID0EOB -->
<g id="node8" class="node">
<title>tech_ID0EOB</title>
<ellipse fill="#da70d6" stroke="#da70d6" cx="1098.7337" cy="-378" rx="45.7867" ry="18"/>
<text text-anchor="middle" x="1098.7337" y="-373.8" font-family="Times,serif" font-size="14.00" fill="#000000">Lapidary</text>
</g>
<!-- tech_ID0ETG -->
<g id="node9" class="node">
<title>tech_ID0ETG</title>
<ellipse fill="#87ceeb" stroke="#87ceeb" cx="1161.7337" cy="-450" rx="65.4493" ry="18"/>
<text text-anchor="middle" x="1161.7337" y="-445.8" font-family="Times,serif" font-size="14.00" fill="#000000">Water Mining</text>
</g>
<!-- tech_ID0ETG&#45;&gt;tech_ID0EOB -->
<g id="edge5" class="edge">
<title>tech_ID0ETG&#45;&gt;tech_ID0EOB</title>
<path fill="none" stroke="#000000" d="M1146.1606,-432.2022C1138.4176,-423.3531 1128.9323,-412.5127 1120.4846,-402.8583"/>
<polygon fill="#000000" stroke="#000000" points="1122.9128,-400.3182 1113.6937,-395.0972 1117.6448,-404.9278 1122.9128,-400.3182"/>
</g>
<!-- tech_ID0EMG -->
<g id="node28" class="node">
<title>tech_ID0EMG</title>
<ellipse fill="#87ceeb" stroke="#87ceeb" cx="1224.7337" cy="-378" rx="61.935" ry="18"/>
<text text-anchor="middle" x="1224.7337" y="-373.8" font-family="Times,serif" font-size="14.00" fill="#000000">Fine Balance</text>
</g>
<!-- tech_ID0ETG&#45;&gt;tech_ID0EMG -->
<g id="edge30" class="edge">
<title>tech_ID0ETG&#45;&gt;tech_ID0EMG</title>
<path fill="none" stroke="#000000" d="M1177.3067,-432.2022C1184.9358,-423.4832 1194.2565,-412.8311 1202.6093,-403.2849"/>
<polygon fill="#000000" stroke="#000000" points="1205.3887,-405.4236 1209.3398,-395.593 1200.1207,-400.814 1205.3887,-405.4236"/>
</g>
<!-- tech_ID0EBC&#45;&gt;tech_ID0ELC -->
<g id="edge9" class="edge">
<title>tech_ID0EBC&#45;&gt;tech_ID0ELC</title>
<path fill="none" stroke="#000000" d="M512.7337,-359.8314C512.7337,-352.131 512.7337,-342.9743 512.7337,-334.4166"/>
<polygon fill="#000000" stroke="#000000" points="516.2338,-334.4132 512.7337,-324.4133 509.2338,-334.4133 516.2338,-334.4132"/>
</g>
<!-- tech_ID0E5G -->
<g id="node12" class="node">
<title>tech_ID0E5G</title>
<ellipse fill="#7fffd4" stroke="#7fffd4" cx="471.7337" cy="-450" rx="51.0035" ry="18"/>
<text text-anchor="middle" x="471.7337" y="-445.8" font-family="Times,serif" font-size="14.00" fill="#000000">Farming 1</text>
</g>
<!-- tech_ID0E5G&#45;&gt;tech_ID0EBC -->
<g id="edge7" class="edge">
<title>tech_ID0E5G&#45;&gt;tech_ID0EBC</title>
<path fill="none" stroke="#000000" d="M481.8685,-432.2022C486.5993,-423.8944 492.3296,-413.8316 497.5621,-404.6427"/>
<polygon fill="#000000" stroke="#000000" points="500.6663,-406.2644 502.5733,-395.8425 494.5834,-402.8005 500.6663,-406.2644"/>
</g>
<!-- tech_ID0E5G&#45;&gt;tech_ID0ERH -->
<g id="edge34" class="edge">
<title>tech_ID0E5G&#45;&gt;tech_ID0ERH</title>
<path fill="none" stroke="#000000" d="M462.3935,-432.0468C457.5806,-421.789 452.2124,-408.512 449.7337,-396 435.2563,-322.9215 441.0069,-234.468 445.4344,-190.165"/>
<polygon fill="#000000" stroke="#000000" points="448.9235,-190.4518 446.4906,-180.1401 441.962,-189.7184 448.9235,-190.4518"/>
</g>
<!-- tech_ID0EBD -->
<g id="node15" class="node">
<title>tech_ID0EBD</title>
<ellipse fill="#fa8072" stroke="#fa8072" cx="701.7337" cy="-162" rx="47.573" ry="18"/>
<text text-anchor="middle" x="701.7337" y="-157.8" font-family="Times,serif" font-size="14.00" fill="#000000">Casting 2</text>
</g>
<!-- tech_ID0EXC&#45;&gt;tech_ID0EBD -->
<g id="edge12" class="edge">
<title>tech_ID0EXC&#45;&gt;tech_ID0EBD</title>
<path fill="none" stroke="#000000" d="M701.7337,-215.8314C701.7337,-208.131 701.7337,-198.9743 701.7337,-190.4166"/>
<polygon fill="#000000" stroke="#000000" points="705.2338,-190.4132 701.7337,-180.4133 698.2338,-190.4133 705.2338,-190.4132"/>
</g>
<!-- tech_ID0EXC&#45;&gt;tech_ID0EOF -->
<g id="edge25" class="edge">
<title>tech_ID0EXC&#45;&gt;tech_ID0EOF</title>
<path fill="none" stroke="#000000" d="M675.4365,-218.7307C657.5579,-208.3496 633.671,-194.4797 613.9914,-183.0529"/>
<polygon fill="#000000" stroke="#000000" points="615.6875,-179.9905 605.2822,-177.9959 612.1726,-186.0441 615.6875,-179.9905"/>
</g>
<!-- tech_ID0EYF -->
<g id="node14" class="node">
<title>tech_ID0EYF</title>
<ellipse fill="#87ceeb" stroke="#87ceeb" cx="688.7337" cy="-306" rx="56.7426" ry="18"/>
<text text-anchor="middle" x="688.7337" y="-301.8" font-family="Times,serif" font-size="14.00" fill="#000000">Beekeeping</text>
</g>
<!-- tech_ID0EYF&#45;&gt;tech_ID0EXC -->
<g id="edge10" class="edge">
<title>tech_ID0EYF&#45;&gt;tech_ID0EXC</title>
<path fill="none" stroke="#000000" d="M692.0141,-287.8314C693.4045,-280.131 695.0577,-270.9743 696.6029,-262.4166"/>
<polygon fill="#000000" stroke="#000000" points="700.0765,-262.8761 698.4091,-252.4133 693.1878,-261.6322 700.0765,-262.8761"/>
</g>
<!-- tech_ID0EPD -->
<g id="node17" class="node">
<title>tech_ID0EPD</title>
<ellipse fill="#fa8072" stroke="#fa8072" cx="1012.7337" cy="-162" rx="104.7964" ry="18"/>
<text text-anchor="middle" x="1012.7337" y="-157.8" font-family="Times,serif" font-size="14.00" fill="#000000">Deep Well Construction</text>
</g>
<!-- tech_ID0EWD&#45;&gt;tech_ID0EPD -->
<g id="edge14" class="edge">
<title>tech_ID0EWD&#45;&gt;tech_ID0EPD</title>
<path fill="none" stroke="#000000" d="M994.7899,-215.8314C997.3849,-208.0463 1000.476,-198.7729 1003.3554,-190.1347"/>
<polygon fill="#000000" stroke="#000000" points="1006.754,-191.0069 1006.5959,-180.4133 1000.1132,-188.7933 1006.754,-191.0069"/>
</g>
<!-- tech_ID0EWD&#45;&gt;tech_ID0E4D -->
<g id="edge16" class="edge">
<title>tech_ID0EWD&#45;&gt;tech_ID0E4D</title>
<path fill="none" stroke="#000000" d="M955.1924,-218.9064C930.8719,-207.9622 897.7849,-193.0731 871.5552,-181.2697"/>
<polygon fill="#000000" stroke="#000000" points="872.7863,-177.9857 862.2308,-177.0737 869.9137,-184.3691 872.7863,-177.9857"/>
</g>
<!-- tech_ID0EWD&#45;&gt;tech_ID0E6E -->
<g id="edge22" class="edge">
<title>tech_ID0EWD&#45;&gt;tech_ID0E6E</title>
<path fill="none" stroke="#000000" d="M1027.0618,-219.7751C1059.4241,-207.7644 1105.743,-190.5739 1139.4375,-178.0687"/>
<polygon fill="#000000" stroke="#000000" points="1140.8638,-181.2727 1149.0211,-174.5119 1138.4281,-174.7101 1140.8638,-181.2727"/>
</g>
<!-- tech_ID0EHE -->
<g id="node20" class="node">
<title>tech_ID0EHE</title>
<ellipse fill="#fa8072" stroke="#fa8072" cx="1005.7337" cy="-90" rx="61.3764" ry="18"/>
<text text-anchor="middle" x="1005.7337" y="-85.8" font-family="Times,serif" font-size="14.00" fill="#000000">Metallurgy 3</text>
</g>
<!-- tech_ID0E4D&#45;&gt;tech_ID0EHE -->
<g id="edge18" class="edge">
<title>tech_ID0E4D&#45;&gt;tech_ID0EHE</title>
<path fill="none" stroke="#000000" d="M864.9794,-147.256C892.6321,-136.0074 930.889,-120.4453 960.5393,-108.3841"/>
<polygon fill="#000000" stroke="#000000" points="961.8951,-111.6112 969.8393,-104.6011 959.2575,-105.1271 961.8951,-111.6112"/>
</g>
<!-- tech_ID0E6E&#45;&gt;tech_ID0EHE -->
<g id="edge19" class="edge">
<title>tech_ID0E6E&#45;&gt;tech_ID0EHE</title>
<path fill="none" stroke="#000000" d="M1150.2691,-148.7941C1122.412,-137.4624 1081.9716,-121.012 1050.9472,-108.3919"/>
<polygon fill="#000000" stroke="#000000" points="1052.2273,-105.1342 1041.6455,-104.6082 1049.5897,-111.6183 1052.2273,-105.1342"/>
</g>
<!-- tech_ID0ERE&#45;&gt;tech_ID0EYE -->
<g id="edge21" class="edge">
<title>tech_ID0ERE&#45;&gt;tech_ID0EYE</title>
<path fill="none" stroke="#000000" d="M971.8556,-360.937C963.5503,-352.0119 953.2248,-340.9159 944.0323,-331.0373"/>
<polygon fill="#000000" stroke="#000000" points="946.3378,-328.3771 936.9632,-323.4407 941.2133,-333.1457 946.3378,-328.3771"/>
</g>
<!-- tech_ID0E6F -->
<g id="node25" class="node">
<title>tech_ID0E6F</title>
<ellipse fill="#87ceeb" stroke="#87ceeb" cx="448.7337" cy="-90" rx="70.6862" ry="18"/>
<text text-anchor="middle" x="448.7337" y="-85.8" font-family="Times,serif" font-size="14.00" fill="#000000">Cross Breeding</text>
</g>
<!-- tech_ID0EOF&#45;&gt;tech_ID0E6F -->
<g id="edge27" class="edge">
<title>tech_ID0EOF&#45;&gt;tech_ID0E6F</title>
<path fill="none" stroke="#000000" d="M549.4241,-146.1993C531.1582,-136.0044 507.1672,-122.6141 487.1852,-111.4613"/>
<polygon fill="#000000" stroke="#000000" points="488.7591,-108.3315 478.3213,-106.514 485.3475,-114.4439 488.7591,-108.3315"/>
</g>
<!-- tech_ID0E2G -->
<g id="node24" class="node">
<title>tech_ID0E2G</title>
<ellipse fill="#7fffd4" stroke="#7fffd4" cx="676.7337" cy="-378" rx="92.0605" ry="18"/>
<text text-anchor="middle" x="676.7337" y="-373.8" font-family="Times,serif" font-size="14.00" fill="#000000">Animal Husbandry 1</text>
</g>
<!-- tech_ID0E2G&#45;&gt;tech_ID0EYF -->
<g id="edge26" class="edge">
<title>tech_ID0E2G&#45;&gt;tech_ID0EYF</title>
<path fill="none" stroke="#000000" d="M679.7618,-359.8314C681.0452,-352.131 682.5713,-342.9743 683.9976,-334.4166"/>
<polygon fill="#000000" stroke="#000000" points="687.4731,-334.8526 685.6648,-324.4133 680.5683,-333.7018 687.4731,-334.8526"/>
</g>
<!-- tech_ID0EBH -->
<g id="node26" class="node">
<title>tech_ID0EBH</title>
<ellipse fill="#7fffd4" stroke="#7fffd4" cx="318.7337" cy="-162" rx="59.0727" ry="18"/>
<text text-anchor="middle" x="318.7337" y="-157.8" font-family="Times,serif" font-size="14.00" fill="#000000">Gardening 1</text>
</g>
<!-- tech_ID0EBH&#45;&gt;tech_ID0E6F -->
<g id="edge28" class="edge">
<title>tech_ID0EBH&#45;&gt;tech_ID0E6F</title>
<path fill="none" stroke="#000000" d="M347.2627,-146.1993C365.6701,-136.0044 389.8471,-122.6141 409.9841,-111.4613"/>
<polygon fill="#000000" stroke="#000000" points="411.8645,-114.4208 418.9167,-106.514 408.473,-108.2973 411.8645,-114.4208"/>
</g>
<!-- tech_ID0ERH&#45;&gt;tech_ID0E6F -->
<g id="edge29" class="edge">
<title>tech_ID0ERH&#45;&gt;tech_ID0E6F</title>
<path fill="none" stroke="#000000" d="M448.7337,-143.8314C448.7337,-136.131 448.7337,-126.9743 448.7337,-118.4166"/>
<polygon fill="#000000" stroke="#000000" points="452.2338,-118.4132 448.7337,-108.4133 445.2338,-118.4133 452.2338,-118.4132"/>
</g>
<!-- tech_ID0EOH -->
<g id="node29" class="node">
<title>tech_ID0EOH</title>
<ellipse fill="#7fffd4" stroke="#7fffd4" cx="322.7337" cy="-234" rx="65.4474" ry="18"/>
<text text-anchor="middle" x="322.7337" y="-229.8" font-family="Times,serif" font-size="14.00" fill="#000000">Horticulture 1</text>
</g>
<!-- tech_ID0EOH&#45;&gt;tech_ID0EBH -->
<g id="edge31" class="edge">
<title>tech_ID0EOH&#45;&gt;tech_ID0EBH</title>
<path fill="none" stroke="#000000" d="M321.7243,-215.8314C321.2965,-208.131 320.7878,-198.9743 320.3124,-190.4166"/>
<polygon fill="#000000" stroke="#000000" points="323.806,-190.2037 319.7566,-180.4133 316.8168,-190.592 323.806,-190.2037"/>
</g>
</g>
</svg>
